<svg id="logo" xmlns="http://www.w3.org/2000/svg" viewBox="0 0 512 512" width="512" height="512">
  <rect width="512" height="512" fill="#1a0533"></rect>
  <text id="letter" x="250" y="330" text-anchor="middle" font-family="Georgia, serif" font-size="240" font-weight="700" fill="#FF6B2B">C</text>
  <g id="stars">
    <polygon points="293.6,78.5 295.7,84.7 302.3,84.8 297.1,88.7 299.0,95.0 293.6,91.2 288.3,95.0 290.1,88.7 284.9,84.8 291.5,84.7" fill="#7B3FE4" opacity="0.2"></polygon>
    <polygon points="308.5,92.4 310.8,99.2 318.0,99.3 312.3,103.7 314.4,110.6 308.5,106.5 302.5,110.6 304.6,103.7 298.9,99.3 306.1,99.2" fill="#7B3FE4" opacity="0.35"></polygon>
    <polygon points="323.3,106.3 325.9,113.7 333.8,113.9 327.5,118.7 329.8,126.2 323.3,121.7 316.8,126.2 319.1,118.7 312.8,113.9 320.7,113.7" fill="#FF6B2B" opacity="0.5"></polygon>
    <polygon points="338.2,120.1 341.0,128.3 349.6,128.4 342.7,133.6 345.2,141.9 338.2,137.0 331.1,141.9 333.6,133.6 326.7,128.4 335.3,128.3" fill="#FF6B2B" opacity="0.75"></polygon>
    <polygon points="353.0,134.0 356.1,142.8 365.4,143.0 357.9,148.6 360.6,157.5 353.0,152.2 345.4,157.5 348.1,148.6 340.6,143.0 349.9,142.8" fill="#FF6B2B" opacity="1"></polygon>
  </g>
</svg>
