<svg xmlns="http://www.w3.org/2000/svg" viewBox="0 0 512 512" width="512" height="512">
  <rect width="512" height="512" fill="#1a0533"/>
  <text x="256" y="346" text-anchor="middle" font-family="Georgia, serif" font-size="240" font-weight="700" fill="#FF6B2B">C</text>
  <g>
    <polygon points="299.6,94.5 301.7,100.7 308.3,100.8 303.1,104.7 305.0,111.0 299.6,107.2 294.3,111.0 296.1,104.7 290.9,100.8 297.5,100.7" fill="#7B3FE4" opacity="0.2"/>
    <polygon points="314.5,108.4 316.8,115.2 324.0,115.3 318.3,119.7 320.4,126.6 314.5,122.5 308.5,126.6 310.6,119.7 304.9,115.3 312.1,115.2" fill="#7B3FE4" opacity="0.35"/>
    <polygon points="329.3,122.3 331.9,129.7 339.8,129.9 333.5,134.7 335.8,142.2 329.3,137.7 322.8,142.2 325.1,134.7 318.8,129.9 326.7,129.7" fill="#FF6B2B" opacity="0.5"/>
    <polygon points="344.2,136.1 347.0,144.3 355.6,144.4 348.7,149.6 351.2,157.9 344.2,153.0 337.1,157.9 339.6,149.6 332.7,144.4 341.3,144.3" fill="#FF6B2B" opacity="0.75"/>
    <polygon points="359.0,150.0 362.1,158.8 371.4,159.0 363.9,164.6 366.6,173.5 359.0,168.2 351.4,173.5 354.1,164.6 346.6,159.0 355.9,158.8" fill="#FF6B2B" opacity="1"/>
  </g>
</svg>